<svg width="35mm" height="50mm" version="1.1" viewBox="0 0 35 50" xmlns="http://www.w3.org/2000/svg">
<path d="m5.1 22c-3.5 4.6-5.7 11-4.2 13 1.6 1.6 3.1-4.2 4.4-3.4 1.5 0.94-0.97 12 3.4 16 6.2 5.3 4.5-5.4 7-1.4 5.5 8.9 4.2-0.54 6.3-0.81 2.5-0.33 2.8 8.3 5.5-1.9 1.9-6.9-3.4-16 2.4-11 1.1 0.93 5.4 2.7 4.5-0.038-1.5-4.3-7-5.7-8.3-9.1-1.7-4.5-1.4-8.2-4.4-10-3.7-2.8-11-1.3-7.8-7.1 0.92-1.6 2.9-2.7 4.8-1.8 2 0.93 1.7 3.8-2.8 2.8 1.1 3.3 4.8 3.2 6.8 0.25 3.3-4.7-3.5-8.5-9.4-5.4-4.7 2.5-5.8 5.7-6.7 8.7-1 3.6 1.1 8.6-1.5 12z" fill="#fff" stroke="#1a1a1a" stroke-linecap="round" stroke-linejoin="round" stroke-width=".77"/>
</svg>
