<?xml version="1.0" encoding="UTF-8" standalone="no"?>
<!-- Created with Inkscape (http://www.inkscape.org/) -->

<svg
   width="90"
   height="85"
   viewBox="0 0 23.812499 22.489584"
   version="1.1"
   id="svg1197"
   inkscape:version="1.1.1 (3bf5ae0d25, 2021-09-20)"
   sodipodi:docname="monster2-original.svg"
   xmlns:inkscape="http://www.inkscape.org/namespaces/inkscape"
   xmlns:sodipodi="http://sodipodi.sourceforge.net/DTD/sodipodi-0.dtd"
   xmlns="http://www.w3.org/2000/svg"
   xmlns:svg="http://www.w3.org/2000/svg">
  <sodipodi:namedview
     id="namedview1199"
     pagecolor="#ffffff"
     bordercolor="#666666"
     borderopacity="1.0"
     inkscape:pageshadow="2"
     inkscape:pageopacity="0.0"
     inkscape:pagecheckerboard="0"
     inkscape:document-units="mm"
     showgrid="false"
     units="px"
     inkscape:zoom="4.1763187"
     inkscape:cx="22.747306"
     inkscape:cy="63.572734"
     inkscape:window-width="1600"
     inkscape:window-height="851"
     inkscape:window-x="0"
     inkscape:window-y="25"
     inkscape:window-maximized="1"
     inkscape:current-layer="layer1" />
  <defs
     id="defs1194" />
  <g
     inkscape:label="Layer 1"
     inkscape:groupmode="layer"
     id="layer1">
    <g
       id="g1084"
       transform="matrix(1.0097509,0,0,0.99392113,-88.437551,-60.467663)">
      <g
         id="g128810"
         transform="matrix(-1,0,0,1,197.83149,35.786917)">
        <path
           id="path128806"
           style="fill:#333333;stroke-width:0.499999;stroke-linecap:round;stroke-linejoin:round"
           d="m 88.791184,43.615269 c 0.743988,-4.700291 2.118148,-3.463306 5.635354,-4.188586 l -0.149824,1.974264 c -2.439805,-0.16061 -3.062271,-1.119709 -3.877854,2.48932 z"
           sodipodi:nodetypes="ccccc" />
        <path
           id="path128808"
           style="fill:#ffffff;stroke:#333333;stroke-width:0.499998;stroke-linecap:round;stroke-linejoin:round"
           d="m 91.346065,45.154233 c -1.939283,0.741139 -0.992278,2.27271 -2.216315,2.27271 -1.224037,0 -2.216314,-1.017525 -2.216314,-2.27271 0,-1.255184 1.150947,-2.182173 2.216314,-2.272711 1.854131,-0.157572 3.212584,1.891966 2.216315,2.272711 z"
           sodipodi:nodetypes="sssss" />
      </g>
      <g
         id="g128547"
         transform="translate(0.918124,35.786917)">
        <path
           id="path128543"
           style="fill:#333333;stroke-width:0.499999;stroke-linecap:round;stroke-linejoin:round"
           d="m 88.791184,43.615269 c 0.743988,-4.700291 2.118148,-3.463306 5.635354,-4.188586 l -0.149824,1.974264 c -2.439805,-0.16061 -3.062271,-1.119709 -3.877854,2.48932 z"
           sodipodi:nodetypes="ccccc" />
        <path
           id="path128545"
           style="fill:#ffffff;stroke:#333333;stroke-width:0.499998;stroke-linecap:round;stroke-linejoin:round"
           d="m 91.346065,45.154233 c -1.939283,0.741139 -0.992278,2.27271 -2.216315,2.27271 -1.224037,0 -2.216314,-1.017525 -2.216314,-2.27271 0,-1.255184 1.150947,-2.182173 2.216314,-2.272711 1.854131,-0.157572 3.212584,1.891966 2.216315,2.272711 z"
           sodipodi:nodetypes="sssss" />
      </g>
      <path
         id="path128521"
         style="fill:#808080;stroke:#333333;stroke-width:0.5;stroke-linecap:round;stroke-linejoin:round;stroke-miterlimit:4;stroke-dasharray:none"
         d="m 105.7455,71.482411 c 0.2015,-3.249836 -3.01896,-5.953538 -6.592264,-5.953539 -3.573299,2e-6 -6.501867,2.775717 -6.347793,5.953539 0.329163,6.789094 4.17971,9.506903 6.8009,9.721462 3.127157,0.255974 5.710077,-2.801092 6.139157,-9.721462 z"
         sodipodi:nodetypes="sssss" />
      <path
         id="path128523"
         style="fill:#000000;fill-opacity:0.230284;stroke:none;stroke-width:0.499999;stroke-linecap:round;stroke-linejoin:round;stroke-miterlimit:4;stroke-dasharray:none"
         d="m 98.626857,81.081299 c 5.835343,-1.428851 8.968303,-11.845441 0.526262,-15.552583 4.447591,0.761422 7.057141,2.956506 6.592361,5.953641 -1.02933,6.637645 -2.20428,9.571548 -7.118623,9.598942 z"
         sodipodi:nodetypes="ccsc" />
      <g
         id="g128989"
         transform="matrix(1,0,0,-1,0.09564543,154.72727)">
        <path
           style="fill:none;stroke:#333333;stroke-width:0.5;stroke-linecap:round;stroke-linejoin:miter;stroke-miterlimit:4;stroke-dasharray:none;stroke-opacity:1"
           d="m 95.194838,77.187864 c 2.257069,-1.186791 4.968942,-1.394238 8.352382,-0.155607"
           id="path128529"
           sodipodi:nodetypes="cc" />
        <path
           sodipodi:type="star"
           style="fill:#ffffff;fill-opacity:1;stroke:#333333;stroke-width:4.04269;stroke-linecap:round;stroke-linejoin:round;stroke-miterlimit:4;stroke-dasharray:none"
           id="path128531"
           inkscape:flatsided="true"
           sodipodi:sides="3"
           sodipodi:cx="340.12033"
           sodipodi:cy="111.48286"
           sodipodi:r1="8.8544798"
           sodipodi:r2="4.4272399"
           sodipodi:arg1="2.8797933"
           sodipodi:arg2="3.9269908"
           inkscape:rounded="0"
           inkscape:randomized="0"
           transform="matrix(0.10710987,0.06183991,-0.06183991,0.10710987,66.716489,44.497377)"
           inkscape:transform-center-x="0.1279422"
           inkscape:transform-center-y="0.19313166"
           d="m 331.56756,113.77456 10.84448,-10.84447 3.96935,14.81383 z" />
        <path
           sodipodi:type="star"
           style="fill:#ffffff;fill-opacity:1;stroke:#333333;stroke-width:4.04269;stroke-linecap:round;stroke-linejoin:round;stroke-miterlimit:4;stroke-dasharray:none"
           id="path128533"
           inkscape:flatsided="true"
           sodipodi:sides="3"
           sodipodi:cx="340.12033"
           sodipodi:cy="111.48286"
           sodipodi:r1="8.8544798"
           sodipodi:r2="4.4272399"
           sodipodi:arg1="2.8797933"
           sodipodi:arg2="3.9269908"
           inkscape:rounded="0"
           inkscape:randomized="0"
           transform="matrix(-0.10710987,0.06183991,0.06183991,0.10710987,132.02557,44.34177)"
           inkscape:transform-center-x="-0.1279391"
           inkscape:transform-center-y="0.19313166"
           d="m 331.56756,113.77456 10.84448,-10.84447 3.96935,14.81383 z" />
        <path
           sodipodi:type="star"
           style="fill:#ffffff;fill-opacity:1;stroke:#333333;stroke-width:4.04269;stroke-linecap:round;stroke-linejoin:round;stroke-miterlimit:4;stroke-dasharray:none"
           id="path128537"
           inkscape:flatsided="true"
           sodipodi:sides="3"
           sodipodi:cx="340.12033"
           sodipodi:cy="111.48286"
           sodipodi:r1="8.8544798"
           sodipodi:r2="4.4272399"
           sodipodi:arg1="2.8797933"
           sodipodi:arg2="3.9269908"
           inkscape:rounded="0"
           inkscape:randomized="0"
           transform="matrix(0.08925638,0.0856154,-0.0856154,0.08925638,78.624212,37.913899)"
           inkscape:transform-center-x="-0.034578157"
           inkscape:transform-center-y="0.23529458"
           d="m 331.56756,113.77456 10.84448,-10.84447 3.96935,14.81383 z" />
      </g>
      <path
         id="path128541"
         style="fill:#ffffff;stroke:#333333;stroke-width:0.5;stroke-linecap:round;stroke-linejoin:round;stroke-miterlimit:4;stroke-dasharray:none"
         inkscape:transform-center-x="0.33704539"
         inkscape:transform-center-y="-0.870814"
         d="m 103.36961,66.836769 c -0.75844,0.204366 -1.40098,0.836459 -2.6326,-0.705404 l 2.76213,-5.043197 z"
         sodipodi:nodetypes="cccc" />
      <path
         id="path128549"
         style="fill:#ffffff;stroke:#333333;stroke-width:0.5;stroke-linecap:round;stroke-linejoin:round;stroke-miterlimit:4;stroke-dasharray:none"
         inkscape:transform-center-x="-0.33704561"
         inkscape:transform-center-y="-0.88559751"
         d="m 97.702678,66.131367 c -0.554642,0.556205 -0.795048,1.424882 -2.632602,0.705403 l -0.129521,-5.748603 z"
         sodipodi:nodetypes="cccc" />
      <g
         id="g139761"
         transform="translate(0,26.162487)">
        <ellipse
           style="fill:#ffffff;fill-opacity:1;stroke:#333333;stroke-width:0.499999;stroke-linecap:round;stroke-linejoin:round;stroke-miterlimit:4;stroke-dasharray:none;stroke-opacity:1"
           id="circle136900"
           cx="99.209778"
           cy="45.887798"
           rx="3.1138105"
           ry="2.1475332" />
        <ellipse
           style="fill:#333333;fill-opacity:1;stroke:none;stroke-width:0.5;stroke-linecap:round;stroke-linejoin:round;stroke-miterlimit:4;stroke-dasharray:none"
           id="ellipse118073"
           cx="99.438759"
           cy="46.50668"
           rx="0.94325686"
           ry="0.61827612" />
        <path
           style="fill:none;stroke:#333333;stroke-width:1;stroke-linecap:round;stroke-linejoin:miter;stroke-miterlimit:4;stroke-dasharray:none;stroke-opacity:1"
           d="m 96.35631,43.170763 c 2.450501,1.432862 4.12367,0.890392 5.65991,0"
           id="path129249"
           sodipodi:nodetypes="cc" />
      </g>
    </g>
  </g>
</svg>
