<svg width="100" height="100" version="1.1" viewBox="0 0 26.5 26.5" xmlns="http://www.w3.org/2000/svg">
<defs>
<clipPath id="clipPath74204">
<path d="m59.4 61.1c-3.74 5.19-4.93 5.37-3.27 21.6h6.55c1.66-16.2 0.462-16.4-3.27-21.6z" fill="#f0f"/>
</clipPath>
<clipPath id="clipPath52457-2">
<rect x="27.2" y="95.9" width="5.29" height=".974" fill="#f0f"/>
</clipPath>
</defs>
<g transform="translate(-33.9 -66.5)">
<g transform="matrix(1.67 0 0 1.67 -22.6 -44.4)">
<path d="m37.9 66.5c-3.7 3.82-4.89 3.96-3.24 15.9h6.49c1.64-11.9 0.458-12.1-3.24-15.9z" fill="#d88f48"/>
<path d="m37.9 67.4c-3.11 3.42-4.1 3.54-2.72 14.2h5.44c1.38-10.7 0.385-10.8-2.72-14.2z" fill="#9d480f"/>
<g transform="matrix(.832 0 0 .66 -11.6 27.1)" clip-path="url(#clipPath74204)" stroke-width="1.35">
<g fill="#7e3208" stroke-linecap="round" stroke-linejoin="bevel" stroke-width=".493">
<rect x="56.1" y="60.9" width=".319" height="22.6"/>
<rect x="57.1" y="60.9" width=".319" height="22.6"/>
<rect x="58.2" y="60.9" width=".319" height="22.6"/>
<rect x="59.2" y="60.9" width=".319" height="22.6"/>
<rect x="60.3" y="60.9" width=".319" height="22.6"/>
<rect x="61.3" y="60.9" width=".319" height="22.6"/>
<rect x="62.4" y="60.9" width=".319" height="22.6"/>
</g>
<rect x="55.2" y="69.5" width="8.47" height="1.88" fill="#d88f48"/>
</g>
</g>
<g transform="matrix(1.67 0 0 1.67 -9.37 -44.4)">
<path d="m37.9 66.5c-3.7 3.82-4.89 3.96-3.24 15.9h6.49c1.64-11.9 0.458-12.1-3.24-15.9z" fill="#ccc"/>
<path d="m37.9 67.4c-3.11 3.42-4.1 3.54-2.72 14.2h5.44c1.38-10.7 0.385-10.8-2.72-14.2z" fill="#999"/>
<g transform="matrix(.832 0 0 .66 -11.6 27.1)" clip-path="url(#clipPath74204)" stroke-width="1.35">
<g fill="#808080" stroke-linecap="round" stroke-linejoin="bevel" stroke-width=".493">
<rect x="56.1" y="60.9" width=".319" height="22.6"/>
<rect x="57.1" y="60.9" width=".319" height="22.6"/>
<rect x="58.2" y="60.9" width=".319" height="22.6"/>
<rect x="59.2" y="60.9" width=".319" height="22.6"/>
<rect x="60.3" y="60.9" width=".319" height="22.6"/>
<rect x="61.3" y="60.9" width=".319" height="22.6"/>
<rect x="62.4" y="60.9" width=".319" height="22.6"/>
</g>
<rect x="55.2" y="69.5" width="8.47" height="1.88" fill="#ccc"/>
</g>
</g>
<g transform="matrix(1.43 0 0 1.43 -14.5 -28.6)">
<g transform="matrix(.888 0 0 .879 10.6 -12.1)">
<g fill="#7a99ec" stroke="#292935" stroke-linecap="round" stroke-width=".3">
<ellipse cx="29.8" cy="98.4" rx="3.13" ry="3.1"/>
<path d="m32.3 100-1.74 2.26-1.3-2.12"/>
<path d="m30.4 100-1.59 3.5-1.71-3.71"/>
</g>
<rect x="26.8" y="97.2" width="1.02" height="2.47" fill="#292935"/>
<rect x="31.8" y="97.2" width="1.02" height="2.47" fill="#292935"/>
<path d="m28.3 95.7c-0.208-0.643-0.102-0.871 0.481-0.852l0.97-1.61 0.941 1.61c0.578-0.0454 0.642 0.523 0.484 0.869" fill="#585858" stroke="#292935" stroke-linecap="round" stroke-width=".3"/>
<g transform="matrix(1 0 0 1.1 0 -9.82)" clip-path="url(#clipPath52457-2)" fill="#f5fbef" stroke="#292935" stroke-linecap="round" stroke-width=".0953">
<ellipse cx="28.8" cy="96.6" rx="1.01" ry=".529"/>
<ellipse cx="30.8" cy="96.6" rx="1.01" ry=".529"/>
</g>
<path d="m27.8 97.1h3.97" fill="none" stroke="#292935" stroke-width=".1"/>
<ellipse cx="28.9" cy="96.5" rx=".151" ry=".11" fill="#292935"/>
<ellipse cx="30.7" cy="96.5" rx=".151" ry=".11" fill="#292935"/>
</g>
<g transform="matrix(1.34 0 0 1.34 14.3 -40.5)">
<ellipse cx="19.1" cy="90.6" rx="2.07" ry="2.05" fill="#8f764d" stroke="#292935" stroke-linecap="round" stroke-width=".198"/>
<g transform="matrix(.661 0 0 .728 -.582 19.1)" stroke-width=".953">
<g transform="translate(-1.98)" fill="#f5fbef" stroke="#292935" stroke-linecap="round" stroke-width=".164">
<ellipse cx="32.7" cy="96.6" rx=".898" ry=".533"/>
<ellipse cx="30.8" cy="96.6" rx=".898" ry=".533"/>
</g>
</g>
<ellipse cx="18.4" cy="89.4" rx=".0996" ry=".0723" fill="#292935"/>
<ellipse cx="19.7" cy="89.4" rx=".0996" ry=".0723" fill="#292935"/>
<path d="m18.1 88.9c-0.14-0.588 0.589-0.879 1.12-1.33 0.459 0.509 1.03 0.594 0.965 1.33" fill="#8f764d" stroke="#292935" stroke-linecap="round" stroke-linejoin="round" stroke-width=".183"/>
<ellipse cx="19.1" cy="87.9" rx=".589" ry=".544" fill="#292935"/>
<path d="m18.9 91.1s-0.62-0.143-0.674 0.584c-0.0281 0.385 0.984 0.28 1.65 0.238 0.525-0.0335 1.33-0.0058 1.09 0.939-0.138 0.56-0.82 0.292-1.32 0.0865-0.363-0.149-1.96-0.209-2.48-0.91-0.375-0.511 0.491-1.45 1.41-1.46" fill="#8f764d" stroke="#292935" stroke-linecap="round" stroke-linejoin="round" stroke-width=".15"/>
<g fill="#292935">
<rect transform="rotate(4.61)" x="26.4" y="90.1" width=".485" height=".939"/>
<rect transform="matrix(.91 .415 -.325 .946 0 0)" x="47.3" y="76.2" width=".414" height=".89"/>
<rect transform="matrix(.967 .257 -.111 .994 0 0)" x="30.4" y="84.6" width=".498" height="1.22"/>
</g>
<path d="m20.6 90.4s-0.12 0.63-0.347 0.679c-0.227 0.0488-0.262-0.406-0.422-0.409-0.16-0.0032-0.189 0.662-0.41 0.594-0.221-0.0681-0.286-0.834-0.286-0.834" fill="#8f764d" stroke="#292935" stroke-linecap="round" stroke-linejoin="round" stroke-width=".15"/>
</g>
</g>
<g transform="matrix(1.43 0 0 1.43 -1.25 -28.6)">
<g transform="matrix(.888 0 0 .879 10.6 -12.1)">
<g fill="#7a99ec" stroke="#292935" stroke-linecap="round" stroke-width=".3">
<ellipse cx="29.8" cy="98.4" rx="3.13" ry="3.1"/>
<path d="m32.3 100-1.74 2.26-1.3-2.12"/>
<path d="m30.4 100-1.59 3.5-1.71-3.71"/>
</g>
<rect x="26.8" y="97.2" width="1.02" height="2.47" fill="#292935"/>
<rect x="31.8" y="97.2" width="1.02" height="2.47" fill="#292935"/>
<path d="m28.3 95.7c-0.208-0.643-0.102-0.871 0.481-0.852l0.97-1.61 0.941 1.61c0.578-0.0454 0.642 0.523 0.484 0.869" fill="#585858" stroke="#292935" stroke-linecap="round" stroke-width=".3"/>
<g transform="matrix(1 0 0 1.1 0 -9.82)" clip-path="url(#clipPath52457-2)" fill="#f5fbef" stroke="#292935" stroke-linecap="round" stroke-width=".0953">
<ellipse cx="28.8" cy="96.6" rx="1.01" ry=".529"/>
<ellipse cx="30.8" cy="96.6" rx="1.01" ry=".529"/>
</g>
<path d="m27.8 97.1h3.97" fill="none" stroke="#292935" stroke-width=".1"/>
<ellipse cx="28.9" cy="96.5" rx=".151" ry=".11" fill="#292935"/>
<ellipse cx="30.7" cy="96.5" rx=".151" ry=".11" fill="#292935"/>
</g>
<g transform="matrix(1.34 0 0 1.34 14.3 -40.5)">
<ellipse cx="19.1" cy="90.6" rx="2.07" ry="2.05" fill="#8f764d" stroke="#292935" stroke-linecap="round" stroke-width=".198"/>
<g transform="matrix(.661 0 0 .728 -.582 19.1)" stroke-width=".953">
<g transform="translate(-1.98)" fill="#f5fbef" stroke="#292935" stroke-linecap="round" stroke-width=".164">
<ellipse cx="32.7" cy="96.6" rx=".898" ry=".533"/>
<ellipse cx="30.8" cy="96.6" rx=".898" ry=".533"/>
</g>
</g>
<ellipse cx="18.4" cy="89.4" rx=".0996" ry=".0723" fill="#292935"/>
<ellipse cx="19.7" cy="89.4" rx=".0996" ry=".0723" fill="#292935"/>
<path d="m18.1 88.9c-0.14-0.588 0.589-0.879 1.12-1.33 0.459 0.509 1.03 0.594 0.965 1.33" fill="#8f764d" stroke="#292935" stroke-linecap="round" stroke-linejoin="round" stroke-width=".183"/>
<ellipse cx="19.1" cy="87.9" rx=".589" ry=".544" fill="#292935"/>
<path d="m18.9 91.1s-0.62-0.143-0.674 0.584c-0.0281 0.385 0.984 0.28 1.65 0.238 0.525-0.0335 1.33-0.0058 1.09 0.939-0.138 0.56-0.82 0.292-1.32 0.0865-0.363-0.149-1.96-0.209-2.48-0.91-0.375-0.511 0.491-1.45 1.41-1.46" fill="#8f764d" stroke="#292935" stroke-linecap="round" stroke-linejoin="round" stroke-width=".15"/>
<g fill="#292935">
<rect transform="rotate(4.61)" x="26.4" y="90.1" width=".485" height=".939"/>
<rect transform="matrix(.91 .415 -.325 .946 0 0)" x="47.3" y="76.2" width=".414" height=".89"/>
<rect transform="matrix(.967 .257 -.111 .994 0 0)" x="30.4" y="84.6" width=".498" height="1.22"/>
</g>
<path d="m20.6 90.4s-0.12 0.63-0.347 0.679c-0.227 0.0488-0.262-0.406-0.422-0.409-0.16-0.0032-0.189 0.662-0.41 0.594-0.221-0.0681-0.286-0.834-0.286-0.834" fill="#8f764d" stroke="#292935" stroke-linecap="round" stroke-linejoin="round" stroke-width=".15"/>
</g>
</g>
</g>
</svg>
