<svg width="60" height="60" version="1.1" viewBox="0 0 15.875 15.875" xmlns="http://www.w3.org/2000/svg">
<defs>
<clipPath id="clipPath74204">
<path d="m59.425 61.103c-3.7355 5.1903-4.9317 5.3735-3.2726 21.551h6.5456c1.6591-16.177 0.46243-16.36-3.273-21.551z" fill="#f0f"/>
</clipPath>
<clipPath id="clipPath52457">
<rect x="27.161" y="95.944" width="5.2917" height=".97361" fill="#f0f"/>
</clipPath>
</defs>
<g transform="translate(-33.905 -66.535)">
<g>
<path d="m37.874 66.535c-3.7028 3.8234-4.8886 3.9584-3.244 15.875h6.4884c1.6446-11.917 0.45839-12.052-3.2444-15.875z" fill="#d88f48"/>
<path d="m37.874 67.366c-3.1071 3.423-4.1022 3.5439-2.7221 14.213h5.4446c1.38-10.669 0.38465-10.79-2.7225-14.213z" fill="#9d480f"/>
<g transform="matrix(.83179 0 0 .65951 -11.555 27.068)" clip-path="url(#clipPath74204)" stroke-width="1.3502">
<g fill="#7e3208" stroke-linecap="round" stroke-linejoin="bevel" stroke-width=".49281">
<rect x="56.098" y="60.944" width=".31906" height="22.61"/>
<rect x="57.145" y="60.944" width=".31906" height="22.61"/>
<rect x="58.192" y="60.944" width=".31906" height="22.61"/>
<rect x="59.24" y="60.944" width=".31906" height="22.61"/>
<rect x="60.287" y="60.944" width=".31906" height="22.61"/>
<rect x="61.334" y="60.944" width=".31906" height="22.61"/>
<rect x="62.382" y="60.944" width=".31906" height="22.61"/>
</g>
<rect x="55.169" y="69.503" width="8.4677" height="1.8769" fill="#d88f48"/>
</g>
</g>
<g transform="translate(7.9375)">
<path d="m37.874 66.535c-3.7028 3.8234-4.8886 3.9584-3.244 15.875h6.4884c1.6446-11.917 0.45839-12.052-3.2444-15.875z" fill="#ccc"/>
<path d="m37.874 67.366c-3.1071 3.423-4.1022 3.5439-2.7221 14.213h5.4446c1.38-10.669 0.38465-10.79-2.7225-14.213z" fill="#999"/>
<g transform="matrix(.83179 0 0 .65951 -11.555 27.068)" clip-path="url(#clipPath74204)" stroke-width="1.3502">
<g fill="#808080" stroke-linecap="round" stroke-linejoin="bevel" stroke-width=".49281">
<rect x="56.098" y="60.944" width=".31906" height="22.61"/>
<rect x="57.145" y="60.944" width=".31906" height="22.61"/>
<rect x="58.192" y="60.944" width=".31906" height="22.61"/>
<rect x="59.24" y="60.944" width=".31906" height="22.61"/>
<rect x="60.287" y="60.944" width=".31906" height="22.61"/>
<rect x="61.334" y="60.944" width=".31906" height="22.61"/>
<rect x="62.382" y="60.944" width=".31906" height="22.61"/>
</g>
<rect x="55.169" y="69.503" width="8.4677" height="1.8769" fill="#ccc"/>
</g>
<g transform="matrix(.66052 0 0 .66052 8.456 10.072)">
<g fill="#7a99ec" stroke="#292935" stroke-linecap="round" stroke-width=".3">
<ellipse cx="29.778" cy="98.384" rx="3.1276" ry="3.0964"/>
<path d="m32.314 100.21-1.7402 2.2572-1.2963-2.1225"/>
<path d="m30.441 100.25-1.5909 3.5046-1.71-3.7081"/>
</g>
<rect x="26.803" y="97.172" width="1.0193" height="2.4651" fill="#292935"/>
<rect x="31.781" y="97.172" width="1.0193" height="2.4651" fill="#292935"/>
<path d="m28.33 95.725c-0.20776-0.64252-0.10165-0.87093 0.48149-0.85187l0.96982-1.6112 0.9414 1.6122c0.5777-0.04539 0.64229 0.52322 0.48443 0.86893" fill="#585858" stroke="#292935" stroke-linecap="round" stroke-width=".3"/>
<g transform="matrix(1 0 0 1.1022 0 -9.8193)" clip-path="url(#clipPath52457)" fill="#f5fbef" stroke="#292935" stroke-linecap="round" stroke-width=".095252">
<ellipse cx="28.831" cy="96.63" rx="1.01" ry=".52914"/>
<ellipse cx="30.782" cy="96.63" rx="1.01" ry=".52914"/>
</g>
<path d="m27.823 97.051h3.9688" fill="none" stroke="#292935" stroke-width=".1"/>
<ellipse cx="28.912" cy="96.54" rx=".15083" ry=".10953" fill="#292935"/>
<ellipse cx="30.748" cy="96.54" rx=".15083" ry=".10953" fill="#292935"/>
</g>
<g transform="translate(12.66 -15.375)">
<ellipse cx="19.087" cy="90.62" rx="2.0658" ry="2.0453" fill="#8f764d" stroke="#292935" stroke-linecap="round" stroke-width=".19816"/>
<g transform="matrix(.66052 0 0 .72802 -.58201 19.149)" stroke-width=".95252">
<g transform="translate(-1.9796)" fill="#f5fbef" stroke="#292935" stroke-linecap="round" stroke-width=".16386">
<ellipse cx="32.738" cy="96.63" rx=".89817" ry=".53348"/>
<ellipse cx="30.778" cy="96.63" rx=".89817" ry=".53348"/>
</g>
</g>
<ellipse cx="18.449" cy="89.401" rx=".099629" ry=".072348" fill="#292935"/>
<ellipse cx="19.728" cy="89.401" rx=".099629" ry=".072348" fill="#292935"/>
<path d="m18.084 88.917c-0.1399-0.58756 0.58868-0.8793 1.1221-1.3253 0.45877 0.509 1.0279 0.59383 0.96546 1.3253" fill="#8f764d" stroke="#292935" stroke-linecap="round" stroke-linejoin="round" stroke-width=".18307"/>
<ellipse cx="19.1" cy="87.921" rx=".5887" ry=".54387" fill="#292935"/>
<path d="m18.905 91.145s-0.6204-0.14349-0.67356 0.58434c-0.0281 0.38478 0.98417 0.28019 1.6499 0.2377 0.52529-0.03352 1.3274-0.0058 1.0938 0.93881-0.13844 0.55988-0.82003 0.2921-1.3201 0.08647-0.36257-0.14908-1.9639-0.20921-2.4776-0.90971-0.37513-0.51149 0.49097-1.4459 1.4106-1.4576" fill="#8f764d" stroke="#292935" stroke-linecap="round" stroke-linejoin="round" stroke-width=".15"/>
<g fill="#292935">
<rect transform="rotate(4.6104)" x="26.404" y="90.109" width=".4849" height=".93852"/>
<rect transform="matrix(.90968 .41531 -.32465 .94584 0 0)" x="47.342" y="76.247" width=".41447" height=".88984"/>
<rect transform="matrix(.96652 .25661 -.11056 .99387 0 0)" x="30.419" y="84.584" width=".49842" height="1.2249"/>
</g>
<path d="m20.578 90.395s-0.11965 0.63006-0.34702 0.67889c-0.22737 0.04883-0.26234-0.40623-0.42222-0.40942-0.15989-0.0032-0.18861 0.66176-0.4099 0.59363-0.22129-0.06814-0.28559-0.83391-0.28559-0.83391" fill="#8f764d" stroke="#292935" stroke-linecap="round" stroke-linejoin="round" stroke-width=".15"/>
</g>
<g transform="translate(8.0042)">
<g transform="matrix(.66052 0 0 .66052 8.456 10.072)">
<g fill="#7a99ec" stroke="#292935" stroke-linecap="round" stroke-width=".3">
<ellipse cx="29.778" cy="98.384" rx="3.1276" ry="3.0964"/>
<path d="m32.314 100.21-1.7402 2.2572-1.2963-2.1225"/>
<path d="m30.441 100.25-1.5909 3.5046-1.71-3.7081"/>
</g>
<rect x="26.803" y="97.172" width="1.0193" height="2.4651" fill="#292935"/>
<rect x="31.781" y="97.172" width="1.0193" height="2.4651" fill="#292935"/>
<path d="m28.33 95.725c-0.20776-0.64252-0.10165-0.87093 0.48149-0.85187l0.96982-1.6112 0.9414 1.6122c0.5777-0.04539 0.64229 0.52322 0.48443 0.86893" fill="#585858" stroke="#292935" stroke-linecap="round" stroke-width=".3"/>
<g transform="matrix(1 0 0 1.1022 0 -9.8193)" clip-path="url(#clipPath52457)" fill="#f5fbef" stroke="#292935" stroke-linecap="round" stroke-width=".095252">
<ellipse cx="28.831" cy="96.63" rx="1.01" ry=".52914"/>
<ellipse cx="30.782" cy="96.63" rx="1.01" ry=".52914"/>
</g>
<path d="m27.823 97.051h3.9688" fill="none" stroke="#292935" stroke-width=".1"/>
<ellipse cx="28.912" cy="96.54" rx=".15083" ry=".10953" fill="#292935"/>
<ellipse cx="30.748" cy="96.54" rx=".15083" ry=".10953" fill="#292935"/>
</g>
<g transform="translate(12.66 -15.375)">
<ellipse cx="19.087" cy="90.62" rx="2.0658" ry="2.0453" fill="#8f764d" stroke="#292935" stroke-linecap="round" stroke-width=".19816"/>
<g transform="matrix(.66052 0 0 .72802 -.58201 19.149)" stroke-width=".95252">
<g transform="translate(-1.9796)" fill="#f5fbef" stroke="#292935" stroke-linecap="round" stroke-width=".16386">
<ellipse cx="32.738" cy="96.63" rx=".89817" ry=".53348"/>
<ellipse cx="30.778" cy="96.63" rx=".89817" ry=".53348"/>
</g>
</g>
<ellipse cx="18.449" cy="89.401" rx=".099629" ry=".072348" fill="#292935"/>
<ellipse cx="19.728" cy="89.401" rx=".099629" ry=".072348" fill="#292935"/>
<path d="m18.084 88.917c-0.1399-0.58756 0.58868-0.8793 1.1221-1.3253 0.45877 0.509 1.0279 0.59383 0.96546 1.3253" fill="#8f764d" stroke="#292935" stroke-linecap="round" stroke-linejoin="round" stroke-width=".18307"/>
<ellipse cx="19.1" cy="87.921" rx=".5887" ry=".54387" fill="#292935"/>
<path d="m18.905 91.145s-0.6204-0.14349-0.67356 0.58434c-0.0281 0.38478 0.98417 0.28019 1.6499 0.2377 0.52529-0.03352 1.3274-0.0058 1.0938 0.93881-0.13844 0.55988-0.82003 0.2921-1.3201 0.08647-0.36257-0.14908-1.9639-0.20921-2.4776-0.90971-0.37513-0.51149 0.49097-1.4459 1.4106-1.4576" fill="#8f764d" stroke="#292935" stroke-linecap="round" stroke-linejoin="round" stroke-width=".15"/>
<g fill="#292935">
<rect transform="rotate(4.6104)" x="26.404" y="90.109" width=".4849" height=".93852"/>
<rect transform="matrix(.90968 .41531 -.32465 .94584 0 0)" x="47.342" y="76.247" width=".41447" height=".88984"/>
<rect transform="matrix(.96652 .25661 -.11056 .99387 0 0)" x="30.419" y="84.584" width=".49842" height="1.2249"/>
</g>
<path d="m20.578 90.395s-0.11965 0.63006-0.34702 0.67889c-0.22737 0.04883-0.26234-0.40623-0.42222-0.40942-0.15989-0.0032-0.18861 0.66176-0.4099 0.59363-0.22129-0.06814-0.28559-0.83391-0.28559-0.83391" fill="#8f764d" stroke="#292935" stroke-linecap="round" stroke-linejoin="round" stroke-width=".15"/>
</g>
</g>
</g>
</g>
</svg>
