<svg width="60" height="60" version="1.1" viewBox="0 0 16 16" xmlns="http://www.w3.org/2000/svg">
<defs>
<clipPath id="clipPath74204">
<path d="m59 61c-3.7 5.2-4.9 5.4-3.3 22h6.5c1.7-16 0.46-16-3.3-22z" fill="#f0f"/>
</clipPath>
<clipPath id="clipPath52457">
<rect x="27" y="96" width="5.3" height=".97" fill="#f0f"/>
</clipPath>
</defs>
<g transform="translate(-34 -67)">
<path d="m38 67c-3.7 3.8-4.9 4-3.2 16h6.5c1.6-12 0.46-12-3.2-16z" fill="#d88f48"/>
<path d="m38 67c-3.1 3.4-4.1 3.5-2.7 14h5.4c1.4-11 0.38-11-2.7-14z" fill="#9d480f"/>
<g transform="matrix(.83 0 0 .66 -12 27)" clip-path="url(#clipPath74204)" stroke-width="1.4">
<g fill="#7e3208" stroke-linecap="round" stroke-linejoin="bevel" stroke-width=".49">
<rect x="56" y="61" width=".32" height="23"/>
<rect x="57" y="61" width=".32" height="23"/>
<rect x="58" y="61" width=".32" height="23"/>
<rect x="59" y="61" width=".32" height="23"/>
<rect x="60" y="61" width=".32" height="23"/>
<rect x="61" y="61" width=".32" height="23"/>
<rect x="62" y="61" width=".32" height="23"/>
</g>
<rect x="55" y="70" width="8.5" height="1.9" fill="#d88f48"/>
</g>
<g transform="translate(7.9)">
<path d="m38 67c-3.7 3.8-4.9 4-3.2 16h6.5c1.6-12 0.46-12-3.2-16z" fill="#ccc"/>
<path d="m38 67c-3.1 3.4-4.1 3.5-2.7 14h5.4c1.4-11 0.38-11-2.7-14z" fill="#999"/>
<g transform="matrix(.83 0 0 .66 -12 27)" clip-path="url(#clipPath74204)" stroke-width="1.4">
<g fill="#808080" stroke-linecap="round" stroke-linejoin="bevel" stroke-width=".49">
<rect x="56" y="61" width=".32" height="23"/>
<rect x="57" y="61" width=".32" height="23"/>
<rect x="58" y="61" width=".32" height="23"/>
<rect x="59" y="61" width=".32" height="23"/>
<rect x="60" y="61" width=".32" height="23"/>
<rect x="61" y="61" width=".32" height="23"/>
<rect x="62" y="61" width=".32" height="23"/>
</g>
<rect x="55" y="70" width="8.5" height="1.9" fill="#ccc"/>
</g>
<g transform="matrix(.66 0 0 .66 8.5 10)">
<g fill="#7a99ec" stroke="#292935" stroke-linecap="round" stroke-width=".3">
<ellipse cx="30" cy="98" rx="3.1" ry="3.1"/>
<path d="m32 100-1.7 2.3-1.3-2.1"/>
<path d="m30 100-1.6 3.5-1.7-3.7"/>
</g>
<rect x="27" y="97" width="1" height="2.5" fill="#292935"/>
<rect x="32" y="97" width="1" height="2.5" fill="#292935"/>
<g stroke="#292935">
<path d="m28 96c-0.21-0.64-0.1-0.87 0.48-0.85l0.97-1.6 0.94 1.6c0.58-0.045 0.64 0.52 0.48 0.87" fill="#585858" stroke-linecap="round" stroke-width=".3"/>
<g transform="matrix(1 0 0 1.1 0 -9.8)" clip-path="url(#clipPath52457)" fill="#f5fbef" stroke-linecap="round" stroke-width=".095">
<ellipse cx="29" cy="97" rx="1" ry=".53"/>
<ellipse cx="31" cy="97" rx="1" ry=".53"/>
</g>
<path d="m28 97h4" fill="none" stroke-width=".1"/>
</g>
<ellipse cx="29" cy="97" rx=".15" ry=".11" fill="#292935"/>
<ellipse cx="31" cy="97" rx=".15" ry=".11" fill="#292935"/>
</g>
<g transform="translate(13 -15)">
<ellipse cx="19" cy="91" rx="2.1" ry="2" fill="#8f764d" stroke="#292935" stroke-linecap="round" stroke-width=".2"/>
<g transform="matrix(.66 0 0 .73 -.58 19)" stroke-width=".95">
<g transform="translate(-2)" fill="#f5fbef" stroke="#292935" stroke-linecap="round" stroke-width=".16">
<ellipse cx="33" cy="97" rx=".9" ry=".53"/>
<ellipse cx="31" cy="97" rx=".9" ry=".53"/>
</g>
</g>
<ellipse cx="18" cy="89" rx=".1" ry=".072" fill="#292935"/>
<ellipse cx="20" cy="89" rx=".1" ry=".072" fill="#292935"/>
<path d="m18 89c-0.14-0.59 0.59-0.88 1.1-1.3 0.46 0.51 1 0.59 0.97 1.3" fill="#8f764d" stroke="#292935" stroke-linecap="round" stroke-linejoin="round" stroke-width=".18"/>
<ellipse cx="19" cy="88" rx=".59" ry=".54" fill="#292935"/>
<path d="m19 91s-0.62-0.14-0.67 0.58c-0.028 0.38 0.98 0.28 1.6 0.24 0.53-0.034 1.3-0.0058 1.1 0.94-0.14 0.56-0.82 0.29-1.3 0.086-0.36-0.15-2-0.21-2.5-0.91-0.38-0.51 0.49-1.4 1.4-1.5" fill="#8f764d" stroke="#292935" stroke-linecap="round" stroke-linejoin="round" stroke-width=".15"/>
<g fill="#292935">
<rect transform="rotate(4.6)" x="26" y="90" width=".48" height=".94"/>
<rect transform="matrix(.91 .42 -.32 .95 0 0)" x="47" y="76" width=".41" height=".89"/>
<rect transform="matrix(.97 .26 -.11 .99 0 0)" x="30" y="85" width=".5" height="1.2"/>
</g>
<path d="m21 90s-0.12 0.63-0.35 0.68-0.26-0.41-0.42-0.41c-0.16-0.0032-0.19 0.66-0.41 0.59-0.22-0.068-0.29-0.83-0.29-0.83" fill="#8f764d" stroke="#292935" stroke-linecap="round" stroke-linejoin="round" stroke-width=".15"/>
</g>
<g transform="translate(8)">
<g transform="matrix(.66 0 0 .66 8.5 10)">
<g fill="#7a99ec" stroke="#292935" stroke-linecap="round" stroke-width=".3">
<ellipse cx="30" cy="98" rx="3.1" ry="3.1"/>
<path d="m32 100-1.7 2.3-1.3-2.1"/>
<path d="m30 100-1.6 3.5-1.7-3.7"/>
</g>
<rect x="27" y="97" width="1" height="2.5" fill="#292935"/>
<rect x="32" y="97" width="1" height="2.5" fill="#292935"/>
<g stroke="#292935">
<path d="m28 96c-0.21-0.64-0.1-0.87 0.48-0.85l0.97-1.6 0.94 1.6c0.58-0.045 0.64 0.52 0.48 0.87" fill="#585858" stroke-linecap="round" stroke-width=".3"/>
<g transform="matrix(1 0 0 1.1 0 -9.8)" clip-path="url(#clipPath52457)" fill="#f5fbef" stroke-linecap="round" stroke-width=".095">
<ellipse cx="29" cy="97" rx="1" ry=".53"/>
<ellipse cx="31" cy="97" rx="1" ry=".53"/>
</g>
<path d="m28 97h4" fill="none" stroke-width=".1"/>
</g>
<ellipse cx="29" cy="97" rx=".15" ry=".11" fill="#292935"/>
<ellipse cx="31" cy="97" rx=".15" ry=".11" fill="#292935"/>
</g>
<g transform="translate(13 -15)">
<ellipse cx="19" cy="91" rx="2.1" ry="2" fill="#8f764d" stroke="#292935" stroke-linecap="round" stroke-width=".2"/>
<g transform="matrix(.66 0 0 .73 -.58 19)" stroke-width=".95">
<g transform="translate(-2)" fill="#f5fbef" stroke="#292935" stroke-linecap="round" stroke-width=".16">
<ellipse cx="33" cy="97" rx=".9" ry=".53"/>
<ellipse cx="31" cy="97" rx=".9" ry=".53"/>
</g>
</g>
<ellipse cx="18" cy="89" rx=".1" ry=".072" fill="#292935"/>
<ellipse cx="20" cy="89" rx=".1" ry=".072" fill="#292935"/>
<path d="m18 89c-0.14-0.59 0.59-0.88 1.1-1.3 0.46 0.51 1 0.59 0.97 1.3" fill="#8f764d" stroke="#292935" stroke-linecap="round" stroke-linejoin="round" stroke-width=".18"/>
<ellipse cx="19" cy="88" rx=".59" ry=".54" fill="#292935"/>
<path d="m19 91s-0.62-0.14-0.67 0.58c-0.028 0.38 0.98 0.28 1.6 0.24 0.53-0.034 1.3-0.0058 1.1 0.94-0.14 0.56-0.82 0.29-1.3 0.086-0.36-0.15-2-0.21-2.5-0.91-0.38-0.51 0.49-1.4 1.4-1.5" fill="#8f764d" stroke="#292935" stroke-linecap="round" stroke-linejoin="round" stroke-width=".15"/>
<g fill="#292935">
<rect transform="rotate(4.6)" x="26" y="90" width=".48" height=".94"/>
<rect transform="matrix(.91 .42 -.32 .95 0 0)" x="47" y="76" width=".41" height=".89"/>
<rect transform="matrix(.97 .26 -.11 .99 0 0)" x="30" y="85" width=".5" height="1.2"/>
</g>
<path d="m21 90s-0.12 0.63-0.35 0.68-0.26-0.41-0.42-0.41c-0.16-0.0032-0.19 0.66-0.41 0.59-0.22-0.068-0.29-0.83-0.29-0.83" fill="#8f764d" stroke="#292935" stroke-linecap="round" stroke-linejoin="round" stroke-width=".15"/>
</g>
</g>
</g>
</g>
</svg>
