<svg width="100" height="80" version="1.1" viewBox="0 0 26 21" xmlns="http://www.w3.org/2000/svg">
<g transform="matrix(-.47 .19 .18 .49 58 -12)">
<path d="m96 15c-5.6-3.4-10-4.4-13-1.4-4-3.1-7.3-1.8-11-1.1-0.77-13 6.8-16 14-19 0.92 8.2 4.8 15 9.7 22z" fill="#666" stroke-linecap="round" stroke-linejoin="round" stroke-width=".96"/>
<path d="m72 12c-0.77-13 6.8-16 14-19 0.92 8.2 4.8 15 9.7 22" fill="none" stroke="#333" stroke-linecap="round" stroke-linejoin="round" stroke-width=".96"/>
<path d="m86-7.1c-3.1 6.5-6.2 13-3.3 20" fill="none" stroke="#333" stroke-width=".98"/>
</g>
<g transform="matrix(.47 .19 -.18 .49 -31 -12)" stroke-width=".98">
<path d="m96 15c-5.6-3.4-10-4.4-13-1.4-4-3.1-7.3-1.8-11-1.1-0.77-13 6.8-16 14-19 0.92 8.2 4.8 15 9.7 22z" fill="#666" stroke-linecap="round" stroke-linejoin="round"/>
<path d="m72 12c-0.77-13 6.8-16 14-19 0.92 8.2 4.8 15 9.7 22" fill="none" stroke="#333" stroke-linecap="round" stroke-linejoin="round"/>
<path d="m86-7.1c-3.1 6.5-6.2 13-3.3 20" fill="none" stroke="#333"/>
</g>
<path d="m19 15c0.19 3.2-2.9 5.9-6.4 5.9s-6.3-2.8-6.1-5.9c0.32-6.8 4-9.5 6.6-9.7 3-0.26 5.5 2.8 5.9 9.7z" fill="#808080" stroke="#333" stroke-linecap="round" stroke-linejoin="round" stroke-width=".5"/>
<path d="m12 5.4c5.6 1.4 8.6 12 0.51 15 4.3-0.76 6.8-2.9 6.4-5.9-0.99-6.6-2.1-9.5-6.9-9.6z" fill-opacity=".23"/>
<g transform="matrix(.96 0 0 1 -83 -4.6)">
<ellipse cx="99" cy="16" rx="3.1" ry="2.4" fill="#fff" stroke="#333" stroke-linecap="round" stroke-linejoin="round" stroke-width=".51"/>
<ellipse cx="99" cy="17" rx=".94" ry=".62" fill="#333"/>
</g>
<g stroke="#333" stroke-linecap="round">
<path d="m8.8 18c2.2-1.2 4.8-1.4 8.1-0.16" fill="none" stroke-width=".5"/>
<path d="m8.6 17 1.8-0.015-0.93 1.6z" fill="#fff" stroke-linejoin="round" stroke-width=".5"/>
<path d="m17 17-1.8-0.015 0.93 1.6z" fill="#fff" stroke-linejoin="round" stroke-width=".5"/>
<g transform="matrix(.96 0 0 1 -83 -35)" fill="none" stroke-width=".51">
<path d="m97 43c-1.2 0.32-1.6 1.4-1.7 2"/>
<path d="m102 43c1.2 0.32 1.6 1.4 1.7 2"/>
</g>
</g>
</svg>
