<svg width="7.9375mm" height="7.9375mm" version="1.1" viewBox="0 0 7.9375 7.9375" xmlns="http://www.w3.org/2000/svg">
<g transform="translate(-55.112 -90.783)" stroke-linecap="round">
<path d="m55.112 90.783 2.239 0.98604 1.7618-0.98604 2.0511 0.94252 1.8855-0.94252c-0.61988 3.9147-1.5123 7.3375-3.9688 7.9375-2.2388-0.28911-3.3015-3.6044-3.9687-7.9375z" fill="#f00" stroke-width=".79375"/>
<g transform="matrix(.38175 0 0 .4408 34.052 50.766)" stroke-width="1.935">
<path d="m64.586 98.404-3.2367 3.653-5.4123-7.2806z"/>
<path d="m66.541 98.404 3.2367 3.653 5.4123-7.2806z"/>
</g>
<g transform="matrix(.38175 0 0 .4408 34.046 50.766)" stroke-width="10.456">
<g transform="matrix(.69947 0 0 .69947 33.405 28.661)">
<path transform="scale(.26458)" d="m147.17 398.55h14.797l-7.3984 12.814z"/>
<path transform="matrix(.26458 0 0 .26458 3.4003 0)" d="m147.17 398.55h14.797l-7.3984 12.814z"/>
<path transform="matrix(.26458 0 0 .26458 6.8005 0)" d="m147.17 398.55h14.797l-7.3984 12.814z"/>
<path transform="matrix(.26458 0 0 .26458 10.201 0)" d="m147.17 398.55h14.797l-7.3984 12.814z"/>
</g>
<g transform="matrix(.69947 0 0 -.69947 34.595 180.47)">
<path transform="scale(.26458)" d="m147.17 398.55h14.797l-7.3984 12.814z"/>
<path transform="matrix(.26458 0 0 .26458 3.4003 0)" d="m147.17 398.55h14.797l-7.3984 12.814z"/>
<path transform="matrix(.26458 0 0 .26458 6.8005 0)" d="m147.17 398.55h14.797l-7.3984 12.814z"/>
</g>
</g>
</g>
</svg>
