<svg width="90" height="85" version="1.1" viewBox="0 0 24 22" xmlns="http://www.w3.org/2000/svg">
<g transform="matrix(1 0 0 .99 -88 -60)">
<g transform="matrix(-1 0 0 1 198 36)" stroke-linecap="round" stroke-linejoin="round">
<path d="m89 44c0.74-4.7 2.1-3.5 5.6-4.2l-0.15 2c-2.4-0.16-3.1-1.1-3.9 2.5z" fill="#333" stroke-width=".5"/>
<path d="m91 45c-1.9 0.74-0.99 2.3-2.2 2.3s-2.2-1-2.2-2.3c0-1.3 1.2-2.2 2.2-2.3 1.9-0.16 3.2 1.9 2.2 2.3z" fill="#fff" stroke="#333" stroke-width=".5"/>
</g>
<g transform="translate(.92 36)" stroke-linecap="round" stroke-linejoin="round">
<path d="m89 44c0.74-4.7 2.1-3.5 5.6-4.2l-0.15 2c-2.4-0.16-3.1-1.1-3.9 2.5z" fill="#333" stroke-width=".5"/>
<path d="m91 45c-1.9 0.74-0.99 2.3-2.2 2.3s-2.2-1-2.2-2.3c0-1.3 1.2-2.2 2.2-2.3 1.9-0.16 3.2 1.9 2.2 2.3z" fill="#fff" stroke="#333" stroke-width=".5"/>
</g>
<path d="m106 71c0.2-3.2-3-6-6.6-6-3.6 2e-6 -6.5 2.8-6.3 6 0.33 6.8 4.2 9.5 6.8 9.7 3.1 0.26 5.7-2.8 6.1-9.7z" fill="#808080" stroke="#333" stroke-linecap="round" stroke-linejoin="round" stroke-width=".5"/>
<path d="m99 81c5.8-1.4 9-12 0.53-16 4.4 0.76 7.1 3 6.6 6-1 6.6-2.2 9.6-7.1 9.6z" fill-opacity=".23"/>
<g transform="matrix(1 0 0 -1 .096 155)" stroke="#333" stroke-linecap="round">
<path d="m95 77c2.3-1.2 5-1.4 8.4-0.16" fill="none" stroke-width=".5"/>
<g fill="#fff" stroke-linejoin="round" stroke-width="4">
<path transform="matrix(.11 .062 -.062 .11 67 44)" d="m332 114 11-11 4 15z"/>
<path transform="matrix(-.11 .062 .062 .11 132 44)" d="m332 114 11-11 4 15z"/>
<path transform="matrix(.089 .086 -.086 .089 79 38)" d="m332 114 11-11 4 15z"/>
</g>
</g>
<path d="m103 67c-0.76 0.2-1.4 0.84-2.6-0.71l2.8-5z" fill="#fff" stroke="#333" stroke-linecap="round" stroke-linejoin="round" stroke-width=".5"/>
<path d="m98 66c-0.55 0.56-0.8 1.4-2.6 0.71l-0.13-5.7z" fill="#fff" stroke="#333" stroke-linecap="round" stroke-linejoin="round" stroke-width=".5"/>
<g transform="translate(0 26)">
<ellipse cx="99" cy="46" rx="3.1" ry="2.1" fill="#fff" stroke="#333" stroke-linecap="round" stroke-linejoin="round" stroke-width=".5"/>
<ellipse cx="99" cy="47" rx=".94" ry=".62" fill="#333"/>
<path d="m96 43c2.5 1.4 4.1 0.89 5.7 0" fill="none" stroke="#333" stroke-linecap="round"/>
</g>
</g>
</svg>
