<svg width="100" height="75" version="1.1" viewBox="0 0 26 20" xmlns="http://www.w3.org/2000/svg">
<g transform="translate(-47 -174)">
<g transform="matrix(.87 .49 -.5 .85 -5.2 101)" stroke-linecap="round" stroke-linejoin="round">
<path d="m89 44c0.74-4.7 2.1-3.5 5.6-4.2l-0.15 2c-2.4-0.16-3.1-1.1-3.9 2.5z" fill="#333" stroke-width=".5"/>
<path d="m91 45c-1.9 0.74-0.99 2.3-2.2 2.3s-2.2-1-2.2-2.3c0-1.3 1.2-2.2 2.2-2.3 1.9-0.16 3.2 1.9 2.2 2.3z" fill="#fff" stroke="#333" stroke-width=".5"/>
</g>
<g transform="matrix(-.87 .49 .5 .85 126 101)" stroke-linecap="round" stroke-linejoin="round">
<path d="m89 44c0.74-4.7 2.1-3.5 5.6-4.2l-0.15 2c-2.4-0.16-3.1-1.1-3.9 2.5z" fill="#333" stroke-width=".5"/>
<path d="m91 45c-1.9 0.74-0.99 2.3-2.2 2.3s-2.2-1-2.2-2.3c0-1.3 1.2-2.2 2.2-2.3 1.9-0.16 3.2 1.9 2.2 2.3z" fill="#fff" stroke="#333" stroke-width=".5"/>
</g>
<path d="m67 187c0.2 3.2-3 5.9-6.6 5.9-3.6 0-6.5-2.7-6.4-5.9 0.33-6.7 4.2-9.4 6.8-9.6 3.1-0.25 5.7 2.8 6.2 9.6z" fill="#808080" stroke="#333" stroke-linecap="round" stroke-linejoin="round" stroke-width=".5"/>
<path d="m60 178c5.9 1.4 9 12 0.53 15 4.5-0.75 7.1-2.9 6.6-5.9-1-6.5-2.2-9.4-7.2-9.4z" fill-opacity=".23"/>
<g stroke="#333" stroke-linecap="round">
<path d="m56 190c2.3-1.2 5-1.4 8.4-0.15" fill="none" stroke-width=".5"/>
<path transform="matrix(.088 .087 -.087 .086 37 151)" d="m332 114 11-11 4 15z" fill="#fff" stroke-linejoin="round" stroke-width="4.1"/>
<path d="m62 179c-0.68 0.39-1.1 1.2-2.7 0l1.4-5.5z" fill="#fff" stroke-linejoin="round" stroke-width=".5"/>
</g>
<g transform="matrix(1 0 0 .98 -69 142)">
<g transform="translate(.49 -1.4)">
<g transform="translate(30 -26)">
<ellipse cx="97" cy="71" rx="2.6" ry="1.9" fill="#fff" stroke="#333" stroke-linecap="round" stroke-linejoin="round" stroke-width=".5"/>
<ellipse cx="96" cy="72" rx=".94" ry=".62" fill="#333"/>
<ellipse cx="101" cy="71" rx="2.6" ry="1.9" fill="#fff" stroke="#333" stroke-linecap="round" stroke-linejoin="round" stroke-width=".5"/>
<ellipse cx="101" cy="72" rx=".94" ry=".62" fill="#333"/>
</g>
<path d="m125 42c-1.2 0.32-1.6 1.4-1.7 2" fill="none" stroke="#333" stroke-linecap="round" stroke-width=".5"/>
<path d="m132 42c1.2 0.32 1.6 1.4 1.7 2" fill="none" stroke="#333" stroke-linecap="round" stroke-width=".5"/>
</g>
</g>
<path transform="matrix(.088 .087 -.087 .086 44 151)" d="m332 114 11-11 4 15z" fill="#fff" stroke="#333" stroke-linecap="round" stroke-linejoin="round" stroke-width="4.1"/>
</g>
</svg>
